<?xml version="1.0" encoding="UTF-8" standalone="no"?>
<!-- Created with Inkscape (http://www.inkscape.org/) -->

<svg
   width="1080mm"
   height="1080mm"
   viewBox="0 0 1080 1080"
   version="1.1"
   id="svg1"
   xml:space="preserve"
   xmlns="http://www.w3.org/2000/svg"
   xmlns:svg="http://www.w3.org/2000/svg"><defs
     id="defs1"><clipPath
       id="clip0"><rect
         width="200"
         height="200"
         id="rect2491" /></clipPath></defs><g
     id="layer1"><path
       id="path2"
       style="display:inline;stroke-width:13.2292;stroke-dasharray:none;fill-opacity:0;stroke:#ffffff;stroke-opacity:1"
       d="M 912.00415,540 A 372.00415,372.00415 0 0 1 540,912.00415 372.00415,372.00415 0 0 1 167.99585,540 372.00415,372.00415 0 0 1 540,167.99585 372.00415,372.00415 0 0 1 912.00415,540 Z"
       transform="matrix(0.95,0,0,0.95,26.999999,26.999999)" /><path
       id="circle5"
       style="display:inline;stroke-width:6.61458;stroke-dasharray:none;fill-opacity:0;stroke:#ffffff;stroke-opacity:1"
       d="M 893.40393,540 A 353.40393,353.40393 0 0 1 540,893.40393 353.40393,353.40393 0 0 1 186.59607,540 353.40393,353.40393 0 0 1 540,186.59607 353.40393,353.40393 0 0 1 893.40393,540 Z"
       transform="matrix(0.95,0,0,0.95,26.999999,26.999999)" /><path
       id="path5"
       style="display:inline;fill:#ffffff;fill-opacity:1;fill-rule:nonzero;stroke:none;stroke-width:0.970041;stroke-dasharray:none;stroke-opacity:1"
       d="m 81.470919,143.7885 c -11.95516,-15.56272 -20.77463,-34.08617 -22.53252,-53.810442 -1.1745,-17.527054 2.53197,-35.93718 12.96593,-50.337372 6.35866,-8.886368 16.18092,-15.879822 27.32333,-16.636078 10.480291,-0.414474 20.141311,5.520432 26.838761,13.198059 11.18096,13.05826 28.67558,51.367731 -1.51732,100.104353 -9.7752,16.03943 -24.631971,29.12305 -42.272661,35.79912 -11.99003,4.64861 -25.20788,6.67661 -37.966,4.58821 -10.83162,-2.03313 -21.69331,-7.59572 -27.37501,-17.40445 -4.9854,-8.68341 -5.57909,-19.50679 -2.16509,-28.85867 5.50911,-15.87531 17.89813,-28.74034 38.91931,-38.265068 21.02118,-9.524728 33.87941,-10.481485 46.568271,-10.394021 13.24962,0.11827 26.71294,1.211105 39.24226,5.82312 17.95905,6.455886 34.32578,18.885639 43.22269,36.015259 3.94328,8.18234 6.57536,17.72076 3.87151,26.69993 -2.63302,11.52973 -12.74648,19.96456 -23.77108,23.16627 -16.69728,5.36689 -34.82312,1.61474 -52.90331,-8.56743 C 91.839799,154.72711 86.030529,149.83615 81.470919,143.7885 Z m 66.823161,40.19516 c 11.89946,-0.43386 24.09455,-3.93814 33.37479,-11.62621 9.85188,-7.85956 15.04689,-20.88168 13.79971,-33.37132 -1.12037,-12.5843 -7.38249,-24.19417 -15.50085,-33.66589 -8.81807,-9.889408 -19.83905,-17.815021 -32.0468,-22.980473 -16.14487,-7.219314 -34.12885,-8.832366 -51.617171,-8.434158 -11.25527,0.08513 -22.69428,0.88147 -42.35548,8.943009 -19.6612,8.061538 -30.39585,17.306912 -38.383,28.470812 -6.1189599,9.07265 -10.7083899,19.58648 -10.9461699,30.67312 -0.31021,12.19123 5.03078,24.40819 14.6077699,32.0615 11.63631,9.36135 27.33725,12.75369 42.00449,11.13122 15.29015,-1.2547 30.03156,-6.97835 42.713671,-15.50953 15.42198,-10.32111 26.77313,-25.72197 34.64747,-42.34339 9.69558,-16.6255 18.82437,-56.751996 -0.85252,-88.778944 C 130.79414,27.439133 119.99826,18.11586 106.85867,15.599747 92.129179,12.776001 77.123979,20.389191 67.960239,31.689575 c -11.2752,13.429062 -16.36232,31.051804 -17.24366,48.329178 -0.44296,12.925049 2.04779,25.864807 6.75321,37.883677 7.27585,17.56566 17.83165,34.24682 39.42603,48.35469 21.594381,14.10787 36.427251,18.1233 51.398261,17.72654 z"
       transform="matrix(2.7275486,0,0,2.7275486,266.89378,229.1133)" /><path
       id="path1"
       style="display:inline;stroke-width:0.828779;fill:#ffffff;fill-opacity:1"
       d="m 10526.738,4783.9665 c -0.687,-1 -39.151,-56.0039 -84.484,-123.0037 -144.244,-210.9996 -297.419,-336.9974 -545.3796,-444.9972 -451.2757,-196.9996 -1062.5935,-265.9992 -1635.4452,-183.9994 -110.5865,16 -315.9622,57.0003 -368.1646,74.0003 -37.7779,12 -85.8607,-2.0034 -119.5175,-35.0033 -13.0506,-13 -45.3322,-42.0007 -72.1203,-65.0006 -114.6995,-100.7685 -230.4007,-222.1748 -381.8897,-403.6096 24.6571,-37.6451 48.1332,-76.1738 69.9666,-115.5902 228.6998,-419.9767 309.2169,-886.7276 306.1897,-1319.6863 124.6744,-62.5602 244.2413,-137.5257 357.4259,-223.4632 1.0332,-0.6473 1.6842,-0.9839 2.737,-1.6481 20.6063,-13.9999 57.01,-33.0006 81.7374,-42.0006 47.3942,-17.9999 156.6032,-23.0009 201.2499,-10.0009 l 26.1041,7.0029 -21.2931,54.9996 -20.6051,53.9984 25.4111,-15.9971 c 75.5559,-46.9999 182.0194,-92.004 269.2522,-114.004 35.0305,-9 45.3361,-8.9976 50.1442,2.0024 10.3031,21.9999 -0.687,110.0006 -21.2931,171.0005 l -20.6051,56.9964 56.3213,1.0012 c 82.4247,2 97.5391,8.9994 96.1654,40.9994 -0.6869,21.9999 -14.422,73.0023 -35.0282,131.0022 -1.3737,4 43.2719,6.9973 99.5955,6.9973 125.0104,0 173.7747,8.0049 173.7747,27.0048 0,23.9999 -26.785,91.9948 -52.8862,133.9947 l -25.4161,41.005 54.9502,-7.0029 c 65.2531,-7.9999 302.2275,9.0009 445.784,33.0009 l 103.0304,16.9982 -2.747,25.0024 c -2.7475,34 -17.8626,72.9973 -41.9032,112.9972 l -19.9171,33.0009 83.7964,12.9989 c 94.1016,15 195.7619,41.0018 254.1461,66.0018 l 39.1512,16.9982 -19.9171,36.0046 c -26.7881,49.9998 -46.0217,73.9949 -85.8604,110.9947 -37.778,34 -39.1544,32.0001 43.9572,60.0001 122.9503,40.9999 267.1991,123.0034 358.5521,201.0032 l 48.764,43.0019 -17.858,12.9989 c -9.617,8 -48.082,25.0014 -85.173,38.0014 -37.091,13 -62.504,25.996 -57.009,28.996 150.425,69.9999 272.689,131.004 276.81,137.004 6.869,9 -72.123,82.9951 -134.628,124.9949 l -46.71,31.9997 46.71,28.0004 c 68.687,41.9999 197.823,137.0029 266.51,196.0028 49.455,41.9999 58.385,53.0013 48.768,61.0013 -6.182,4.9999 -52.205,28.9971 -102.347,52.9971 l -90.667,44.003 147.676,103.9975 c 139.434,97.9998 241.094,159.9987 307.72,187.9987 15.799,7 26.787,16.0019 24.04,20.0019 -9.617,13 -162.104,79.9978 -213.619,94.9977 -28.162,8 -65.937,14.0002 -83.796,14.0002 h -33.657 l 19.922,58.0033 c 10.99,31.9999 25.413,93.9984 32.969,136.9983 14.424,81.9998 24.726,166.0019 20.605,163.0019 z m -8416.0751,0 c 0.687,-1 39.151,-56.0039 84.484,-123.0037 144.244,-210.9996 297.419,-336.9974 545.3796,-444.9972 451.2757,-196.9996 1062.5935,-265.9992 1635.4452,-183.9994 110.5865,16 315.9622,57.0003 368.1646,74.0003 37.7779,12 85.8607,-2.0034 119.5175,-35.0033 13.0506,-13 45.3322,-42.0007 72.1203,-65.0006 114.6995,-100.7685 230.4007,-222.1748 381.8897,-403.6096 -24.6571,-37.6451 -48.1332,-76.1738 -69.9666,-115.5902 -228.6998,-419.9767 -309.2169,-886.7276 -306.1897,-1319.6863 -124.6744,-62.5602 -244.2413,-137.5257 -357.4259,-223.4632 -1.0332,-0.6473 -1.6842,-0.9839 -2.737,-1.6481 -20.6063,-13.9999 -57.01,-33.0006 -81.7374,-42.0006 -47.3942,-17.9999 -156.6032,-23.0009 -201.2499,-10.0009 l -26.1041,7.0029 21.2931,54.9996 20.6051,53.9984 -25.4111,-15.9971 c -75.5559,-46.9999 -182.0194,-92.004 -269.2522,-114.004 -35.0305,-9 -45.3361,-8.9976 -50.1442,2.0024 -10.3031,21.9999 0.687,110.0006 21.2931,171.0005 l 20.6051,56.9964 -56.3213,1.0012 c -82.4247,2 -97.5391,8.9994 -96.1654,40.9994 0.6869,21.9999 14.422,73.0023 35.0282,131.0022 1.3737,4 -43.2719,6.9973 -99.5955,6.9973 -125.0104,0 -173.7747,8.0049 -173.7747,27.0048 0,23.9999 26.785,91.9948 52.8862,133.9947 l 25.4161,41.005 -54.9502,-7.0029 c -65.2531,-7.9999 -302.2275,9.0009 -445.784,33.0009 l -103.0304,16.9982 2.747,25.0024 c 2.7475,34 17.8626,72.9973 41.9032,112.9972 l 19.9171,33.0009 -83.7964,12.9989 c -94.1016,15 -195.7619,41.0018 -254.1461,66.0018 l -39.1512,16.9982 19.9171,36.0046 c 26.7881,49.9998 46.0217,73.9949 85.8604,110.9947 37.778,34 39.1544,32.0001 -43.9572,60.0001 -122.9503,40.9999 -267.1991,123.0034 -358.5521,201.0032 l -48.764,43.0019 17.858,12.9989 c 9.617,8 48.082,25.0014 85.173,38.0014 37.091,13 62.504,25.996 57.009,28.996 -150.425,69.9999 -272.689,131.004 -276.81,137.004 -6.869,9 72.123,82.9951 134.628,124.9949 l 46.71,31.9997 -46.71,28.0004 c -68.687,41.9999 -197.823,137.0029 -266.51,196.0028 -49.455,41.9999 -58.385,53.0013 -48.768,61.0013 6.182,4.9999 52.205,28.9971 102.347,52.9971 l 90.667,44.003 -147.676,103.9975 c -139.434,97.9998 -241.094,159.9987 -307.72,187.9987 -15.799,7 -26.787,16.0019 -24.04,20.0019 9.617,13 162.104,79.9978 213.619,94.9977 28.162,8 65.937,14.0002 83.796,14.0002 h 33.657 l -19.922,58.0033 c -10.99,31.9999 -25.413,93.9984 -32.969,136.9983 -14.424,81.9998 -24.726,166.0019 -20.605,163.0019 z"
       transform="matrix(0.10365335,0,0,-0.091872,-114.95447,649.33989)" /><text
       xml:space="preserve"
       style="font-style:normal;font-variant:normal;font-weight:bold;font-stretch:normal;font-size:105.833px;font-family:Verdana;-inkscape-font-specification:'Verdana Bold';fill:#ffffff;fill-opacity:1;fill-rule:nonzero;stroke:none;stroke-width:1.82562;stroke-dasharray:none;stroke-opacity:1;paint-order:stroke fill markers"
       x="375.51443"
       y="824.84314"
       id="text5"><tspan
         id="tspan5"
         style="font-style:normal;font-variant:normal;font-weight:bold;font-stretch:normal;font-size:105.833px;font-family:Verdana;-inkscape-font-specification:'Verdana Bold';fill:#ffffff;fill-opacity:1;stroke:none;stroke-width:1.82562;stroke-dasharray:none"
         x="375.51443"
         y="824.84314">KRSV</tspan></text></g><style
     type="text/css"
     id="style1">.st0{fill-rule:evenodd;clip-rule:evenodd;}</style></svg>
