<?xml version="1.0" encoding="UTF-8" standalone="no"?>
<svg
   width="1080mm"
   height="1080mm"
   viewBox="0 0 1080 1080"
   version="1.1"
   id="svg1"
   xml:space="preserve"
   xmlns="http://www.w3.org/2000/svg"
   xmlns:svg="http://www.w3.org/2000/svg"><defs
     id="defs1"><clipPath
       id="clip0"><rect
         width="200"
         height="200"
         id="rect2491" /></clipPath></defs><g
     id="layer1"><path
       id="path5"
       style="display:inline;fill:#ffffff;fill-opacity:1;fill-rule:nonzero;stroke:none;stroke-width:4.49792;stroke-dasharray:none;stroke-opacity:1"
       d="M 453.48645,704.35072 C 398.05237,632.18899 357.15797,546.29885 349.00693,454.8407 c -5.44596,-81.27001 11.74032,-166.63468 60.12084,-233.40596 29.48405,-41.2046 75.02822,-73.63208 126.69371,-77.13871 48.59536,-1.92185 93.39189,25.59732 124.44684,61.19719 51.84424,60.54896 132.96387,238.18357 -7.03555,464.16713 C 607.9068,744.0325 539.01844,804.69906 457.22151,835.65487 401.62575,857.2097 340.33679,866.6132 281.17952,856.92964 230.95512,847.50235 180.59128,821.70955 154.24619,776.22811 131.12972,735.9646 128.37688,685.77839 144.20703,642.41529 c 25.54482,-73.61115 82.99063,-133.26414 180.46232,-177.42871 97.47169,-44.16457 157.09316,-48.60089 215.92928,-48.19534 61.43627,0.5484 123.86343,5.61569 181.95979,27.00083 83.27311,29.93487 159.1629,87.56955 200.41638,166.99673 18.28433,37.94014 30.48884,82.1682 17.95154,123.80311 -12.20887,53.46143 -59.10329,92.57232 -110.22252,107.41811 C 753.28133,866.8954 669.23485,849.4973 585.40003,802.28429 501.56521,755.07122 474.6286,732.39266 453.48645,704.35072 Z m 309.84781,186.37823 c 55.17581,-2.01174 111.7224,-18.2605 154.75332,-53.90879 45.68152,-36.44347 69.76991,-96.82486 63.98694,-154.73723 -5.19496,-58.35129 -34.23137,-112.18431 -71.87484,-156.1031 -40.88792,-45.85552 -91.99036,-82.60527 -148.59565,-106.5566 -74.86106,-33.47475 -158.24977,-40.9542 -239.34018,-39.10778 -52.18881,0.39473 -105.22958,4.08723 -196.39527,41.46723 -91.1657,37.38001 -140.94047,80.24926 -177.97555,132.01439 -28.37259,42.06836 -49.653012,90.81923 -50.755558,142.22613 -1.438392,56.52869 23.326888,113.17669 67.733788,148.66381 53.95562,43.40701 126.75825,59.13672 194.76778,51.6136 70.89787,-5.81783 139.25132,-32.35744 198.05615,-71.91509 71.50914,-47.85726 124.14252,-119.26847 160.65452,-196.33922 44.95678,-77.08966 87.28545,-263.1495 -3.953,-411.6531 -32.20674,-51.53502 -82.26543,-94.76548 -143.19151,-106.43227 -68.29818,-13.093241 -137.87478,22.20785 -180.36551,74.60584 -52.28122,62.26831 -75.86934,143.98201 -79.95597,224.0943 -2.05393,59.93129 9.49526,119.93079 31.31351,175.66027 33.7369,81.44903 82.68237,158.79678 182.8119,224.21261 100.12953,65.41583 168.90707,84.03471 238.32513,82.195 z" /></g><style
     type="text/css"
     id="style1">.st0{fill-rule:evenodd;clip-rule:evenodd;}</style></svg>
